<svg xmlns="http://www.w3.org/2000/svg" width="2062.644" height="822.154" viewBox="0 0 2062.644 822.154"><path d="M939.79,679.892V584.638H845.632V48.151H706.583L333.231,584.638v95.254H742.714V839.744H845.632V679.892Zm-490.5-95.254L742.714,162.018V584.638Zm596.705-140.144c0,246.346,121.531,409.482,326.272,409.482,203.646,0,325.177-163.136,325.177-409.482,0-245.251-127.005-411.672-325.177-411.672C1173,32.823,1045.993,199.244,1045.993,444.495Zm106.2,0c0-197.077,81.02-315.323,220.069-315.323s218.974,118.246,218.974,315.323c0,194.887-79.926,313.133-218.974,313.133S1152.2,639.382,1152.2,444.495Zm1242.68,235.4V584.638h-94.159V48.151H2161.667L1788.316,584.638v95.254H2197.8V839.744h102.918V679.892Zm-490.5-95.254L2197.8,162.018V584.638Z" transform="translate(-332.731 -32.323)" stroke="#707070" stroke-width="1" opacity="0.065"/></svg>