<?xml version="1.0" encoding="UTF-8"?>
<svg id="Laag_2" data-name="Laag 2" xmlns="http://www.w3.org/2000/svg" viewBox="0 0 448 203.42">
  <defs>
    <style>
      .cls-1 {
        fill: #fff;
      }
    </style>
  </defs>
  <g id="Laag_1-2" data-name="Laag 1">
    <g>
      <g>
        <path class="cls-1" d="m278.65,0l1.09,3.9c.29,1.02.62,2.04,1.01,3.02l28.2,75.19h-60.94l27.84-75.19c.38-.98.72-2,1.01-3.02l1.09-3.9h-4.75l-45.13,121.85h5.24l13.01-34.99h64.33l13.19,34.99h5.41L283.59,0h-4.93Z"/>
        <path class="cls-1" d="m404.37,123.96c26.81,0,42.81-16.07,42.81-42.99V0h-5.44v80.79c0,12.05-3.27,21.47-9.73,28.02-6.46,6.55-15.76,9.88-27.64,9.88-24.44,0-37.9-13.46-37.9-37.9V0h-5.44v80.97c0,13.3,3.95,24.25,11.42,31.66,7.47,7.41,18.51,11.32,31.92,11.32Z"/>
        <polygon class="cls-1" points="189.4 63.12 189.4 58.38 130.32 58.38 130.32 4.74 195.2 4.74 195.2 0 124.88 0 124.88 121.85 195.38 121.85 195.38 117.11 130.32 117.11 130.32 63.12 189.4 63.12"/>
        <path class="cls-1" d="m42.67,0H.21v121.85h45.63c22.16,0,36.48-12.11,36.48-30.85,0-14.84-7.09-24.44-21.66-29.35l-3.89-1.31,3.82-1.51c12.73-5.03,18.92-14.41,18.92-28.67C79.5,11.27,65.73,0,42.67,0Zm34.03,89.94c0,17.02-11.34,27.17-30.34,27.17H5.65v-53.99h40.71c18.71,0,30.34,10.28,30.34,26.82Zm-31.57-31.56H5.65V4.74h37.55c19.22,0,30.69,9.76,30.69,26.12,0,17.24-10.75,27.52-28.76,27.52Z"/>
      </g>
      <g>
        <rect class="cls-1" x="147.3" y="165.93" width="2.6" height="36.55"/>
        <path class="cls-1" d="m192.91,192.68h-2.63c-1.63,5.53-6.03,8.45-12.74,8.45-9.05,0-14.65-6.29-14.97-16.83l-.02-.52h30.52v-2c0-10.04-6.43-16.79-16.01-16.79-10.23,0-17.1,7.75-17.1,19.29,0,5.67,1.67,10.47,4.82,13.9,3.15,3.42,7.55,5.23,12.74,5.23h0c7.95,0,13.12-3.61,15.37-10.73Zm-30.26-11.43c.89-8.49,6.55-13.98,14.42-13.98h0c7.97,0,13.33,5.64,13.33,14.03v.5h-27.81l.06-.55Z"/>
        <path class="cls-1" d="m260,167.51h2.32v-2.23c-.92-.21-1.85-.29-2.78-.28-5.04,0-9.05,2.54-10.49,6.63l-.97-.14-.29-5.55h-2.39v36.55h2.6v-22.34c0-7.43,4.93-12.62,12-12.62Z"/>
        <path class="cls-1" d="m215.8,203.42c5.99,0,11.15-2.98,13.15-7.6l.76-1.76.85,8.42h1.94v-36.55h-2.59v19.53c0,9.82-4.95,15.68-13.25,15.68-9.34,0-11.3-7.33-11.3-13.49v-21.8h-2.68v22.74c0,9.43,4.78,14.83,13.11,14.83Z"/>
        <path class="cls-1" d="m370.53,203.42c5.99,0,11.15-2.98,13.15-7.6l.76-1.76.85,8.42h1.94v-36.55h-2.59v19.53c0,9.82-4.95,15.68-13.25,15.68-9.34,0-11.3-7.33-11.3-13.49v-21.8h-2.68v22.74c0,9.43,4.78,14.83,13.11,14.83Z"/>
        <path class="cls-1" d="m330.63,164.99c-10.5,0-18.11,8.08-18.11,19.21v.24c.11,11.01,7.69,18.97,18.11,18.97s18.12-8.08,18.12-19.21-7.62-19.21-18.12-19.21Zm0,36.14c-8.83,0-15.07-6.57-15.42-16.08h-.02s0-.85,0-.85c0-9.97,6.35-16.93,15.44-16.93s15.44,6.96,15.44,16.93-6.35,16.93-15.44,16.93Z"/>
        <path class="cls-1" d="m274.22,194.33c2.61,5.95,7.54,9.09,14.25,9.09,10.04,0,16.79-7.72,16.79-19.21s-6.74-19.22-16.78-19.22c-6.64,0-11.52,3.04-14.1,8.78l-.96-.21v-26.57h-2.6v55.48h1.92s.52-7.98.52-7.98l.96-.17Zm13.86-27.05c8.81,0,14.5,6.64,14.5,16.93s-5.69,16.93-14.5,16.93c-8.61,0-14.25-6.28-14.56-16.08h-.01s0-.85,0-.85c0-10.28,5.72-16.93,14.58-16.93Z"/>
        <path class="cls-1" d="m445.37,165.93l-8.41,25.16c-1.27,3.87-1.35,4.17-1.8,5.87l-.87,3.25-.48-1.79c-.85-3.15-1.59-5.38-2.26-7.32l-8.34-25.16h-2.96l-8.34,25.16c-.12.28-1.57,4.63-2.18,7.38l-.97.02c-.73-2.71-1.43-5-2.26-7.4l-8.34-25.16h-2.62l12.18,36.55h2.96l8.8-26.49c.69-2,1.29-4.01,1.79-5.99l.97.02c.44,2.01,1.01,4.02,1.7,5.96l8.82,26.5h2.96l12.26-36.55h-2.62Z"/>
        <rect class="cls-1" x="1.49" y="165.93" width="2.6" height="36.55"/>
        <path class="cls-1" d="m33.37,167.28c7.92,0,11.61,4.31,11.61,13.56v21.64h2.6v-22.34c0-10.19-4.62-15.15-14.13-15.15-5.43-.06-10.49,3.02-12.85,7.93l-.76,1.58-.92-8.58h-1.95v36.55h2.6v-18.9c0-10.05,5.29-16.3,13.8-16.3Z"/>
        <path class="cls-1" d="m2.77,147.86c-1.53.04-2.76,1.3-2.77,2.86.04,1.51,1.26,2.7,2.78,2.71,1.5-.03,2.73-1.22,2.79-2.73-.03-1.52-1.26-2.78-2.81-2.84Z"/>
        <polygon class="cls-1" points="73.4 165.93 65.81 165.93 65.81 154.04 63.21 154.04 63.21 165.93 55.62 165.93 55.62 168.06 63.21 168.06 63.21 202.48 65.81 202.48 65.81 168.06 73.4 168.06 73.4 165.93"/>
        <path class="cls-1" d="m111.63,192.68h-2.63c-1.63,5.53-6.03,8.45-12.74,8.45-9.05,0-14.65-6.29-14.97-16.83l-.02-.52h30.52v-2c0-10.04-6.43-16.79-16.01-16.79-10.23,0-17.1,7.75-17.1,19.29,0,5.67,1.67,10.47,4.82,13.9,3.15,3.42,7.55,5.23,12.74,5.23h0c7.95,0,13.12-3.61,15.37-10.73Zm-30.26-11.43c.89-8.49,6.55-13.98,14.42-13.98h0c7.97,0,13.33,5.64,13.33,14.03v.5h-27.81l.06-.55Z"/>
        <path class="cls-1" d="m148.58,147.86c-1.53.04-2.76,1.3-2.77,2.86.04,1.51,1.26,2.7,2.79,2.71h0c1.5-.03,2.72-1.22,2.79-2.73-.03-1.52-1.26-2.78-2.81-2.84Z"/>
        <path class="cls-1" d="m136.48,167.51h2.32v-2.24c-.91-.21-1.85-.3-2.78-.28-5.04,0-9.05,2.54-10.49,6.63l-.97-.14-.29-5.55h-2.39v36.55h2.6v-22.34c0-7.43,4.93-12.62,12-12.62Z"/>
      </g>
    </g>
  </g>
</svg>