<svg xmlns="http://www.w3.org/2000/svg" width="140" height="39.5" viewBox="0 0 140 39.5">
  <path id="Path_5" data-name="Path 5" d="M25.552,74.933c7.112,0,11.817-3.994,11.817-10.066,0-4.814-2.352-7.987-7.057-9.574,4.158-1.641,6.182-4.7,6.182-9.355,0-6.127-4.541-9.848-11.927-9.848H10.89V74.933ZM24.731,38.5c5.744,0,9.082,2.845,9.082,7.659,0,5.088-3.118,8.1-8.48,8.1H13.516V38.5Zm.985,18.163c5.58,0,8.972,3.009,8.972,7.878,0,4.979-3.337,7.987-8.972,7.987h-12.2V56.661ZM72.547,74.933V72.526H52.3V56.661H70.687V54.253H52.3V38.5H72.492V36.09H49.679V74.933Zm11.653,0,4.048-10.887h19.367l4.1,10.887H114.4L99.847,36.09H95.962L81.574,74.933ZM97.549,38.88a10.364,10.364,0,0,0,.328-.985,10.36,10.36,0,0,0,.328.985l8.535,22.759H89.124Zm25.6,22.868c0,8.7,5.2,13.841,13.951,13.841,8.644,0,13.787-5.2,13.787-13.841V36.09h-2.626v25.6c0,7.276-3.994,11.325-11.161,11.325-7.331,0-11.325-3.994-11.325-11.325V36.09h-2.626Z" transform="translate(-10.89 -36.09)" fill="#fff"/>
</svg>
