<svg xmlns="http://www.w3.org/2000/svg" width="140" height="63.935" viewBox="0 0 140 63.935">
  <g id="Group_93" data-name="Group 93" transform="translate(0 0)">
    <path id="Path_5" data-name="Path 5" d="M25.552,74.933c7.112,0,11.817-3.994,11.817-10.066,0-4.814-2.352-7.987-7.057-9.574,4.158-1.641,6.182-4.7,6.182-9.355,0-6.127-4.541-9.848-11.927-9.848H10.89V74.933ZM24.731,38.5c5.744,0,9.082,2.845,9.082,7.659,0,5.088-3.118,8.1-8.48,8.1H13.516V38.5Zm.985,18.163c5.58,0,8.972,3.009,8.972,7.878,0,4.979-3.337,7.987-8.972,7.987h-12.2V56.661ZM72.547,74.933V72.526H52.3V56.661H70.687V54.253H52.3V38.5H72.492V36.09H49.679V74.933Zm11.653,0,4.048-10.887h19.367l4.1,10.887H114.4L99.847,36.09H95.962L81.574,74.933ZM97.549,38.88a10.364,10.364,0,0,0,.328-.985,10.36,10.36,0,0,0,.328.985l8.535,22.759H89.124Zm25.6,22.868c0,8.7,5.2,13.841,13.951,13.841,8.644,0,13.787-5.2,13.787-13.841V36.09h-2.626v25.6c0,7.276-3.994,11.325-11.161,11.325-7.331,0-11.325-3.994-11.325-11.325V36.09h-2.626Z" transform="translate(-10.89 -36.09)"/>
    <path id="Path_10" data-name="Path 10" d="M2.506,9.544a1.042,1.042,0,0,0,1.024-1A1.068,1.068,0,0,0,2.506,7.5,1.051,1.051,0,0,0,1.482,8.545,1.025,1.025,0,0,0,2.506,9.544ZM1.945,24.832H3.067v-11.7H1.945Zm5.949,0V18.785c0-2.95,1.487-4.925,4.145-4.925,2.121,0,3.462.975,3.462,4.072v6.9h1.122V17.712c0-2.926-1.243-4.876-4.559-4.876A4.515,4.515,0,0,0,7.919,15.4l-.244-2.268h-.9v11.7Zm14.41,0V14.1h2.365v-.975H22.3V9.422H21.182v3.706H18.817V14.1h2.365V24.832Zm9.338.293a4.7,4.7,0,0,0,5-3.657H35.495c-.463,1.731-1.78,2.633-3.852,2.633-2.755,0-4.413-1.9-4.511-5.1H36.64v-.78A5.021,5.021,0,0,0,31.5,12.836c-3.267,0-5.486,2.511-5.486,6.169C26.01,22.686,28.253,25.124,31.642,25.124ZM31.5,13.86a3.875,3.875,0,0,1,4,4.218H27.156C27.424,15.518,29.107,13.86,31.5,13.86Zm13.556-.9a3.788,3.788,0,0,0-1.024-.122,3.433,3.433,0,0,0-3.413,2.17l-.1-1.877H39.469v11.7H40.59V17.712a3.51,3.51,0,0,1,3.584-3.779h.878Zm2.9-3.413a1.042,1.042,0,0,0,1.024-1A1.068,1.068,0,0,0,47.954,7.5,1.051,1.051,0,0,0,46.93,8.545,1.026,1.026,0,0,0,47.954,9.544Zm-.561,15.287h1.122v-11.7H47.393Zm9.582.293a4.7,4.7,0,0,0,5-3.657H60.827c-.463,1.731-1.78,2.633-3.852,2.633-2.755,0-4.413-1.9-4.511-5.1h9.509v-.78a5.021,5.021,0,0,0-5.145-5.388c-3.267,0-5.486,2.511-5.486,6.169C51.343,22.686,53.586,25.124,56.975,25.124ZM56.829,13.86a3.875,3.875,0,0,1,4,4.218H52.489C52.757,15.518,54.439,13.86,56.829,13.86Zm16.311-.731V19.37c0,3.023-1.512,4.73-3.974,4.73-1.951,0-3.365-1.048-3.365-4.047V13.1H64.655v7.241c0,2.853,1.439,4.779,4.242,4.779a4.512,4.512,0,0,0,4.242-2.463l.219,2.17h.9v-11.7Zm10.411-.171a3.788,3.788,0,0,0-1.024-.122,3.433,3.433,0,0,0-3.413,2.17l-.1-1.877H77.968v11.7h1.122V17.712a3.51,3.51,0,0,1,3.584-3.779h.878Zm3.243,11.874.171-2.633a4.713,4.713,0,0,0,4.584,2.926c3.438,0,5.388-2.682,5.388-6.144s-1.951-6.144-5.388-6.144a4.639,4.639,0,0,0-4.535,2.828V7.228H85.892v17.6Zm.244-5.852c0-2.95,1.585-5.12,4.389-5.12,2.78,0,4.364,2.17,4.364,5.12,0,2.975-1.585,5.12-4.364,5.12C88.622,24.1,87.038,21.955,87.038,18.98Zm11.85,0a5.812,5.812,0,1,0,11.606,0,5.812,5.812,0,1,0-11.606,0Zm1.146,0c0-3,1.926-5.12,4.657-5.12s4.657,2.121,4.657,5.12-1.926,5.12-4.657,5.12S100.033,21.979,100.033,18.98Zm21.334-5.852V19.37c0,3.023-1.512,4.73-3.974,4.73-1.951,0-3.365-1.048-3.365-4.047V13.1h-1.146v7.241c0,2.853,1.439,4.779,4.242,4.779a4.512,4.512,0,0,0,4.242-2.463l.219,2.17h.9v-11.7Zm7.241,11.7h1.146l2.78-8.363c.2-.561.39-1.195.561-1.877a15.1,15.1,0,0,0,.536,1.877l2.78,8.363h1.146l3.925-11.7h-1.146l-2.658,7.948c-.488,1.487-.414,1.292-.683,2.292-.244-.9-.463-1.585-.707-2.292l-2.633-7.948H132.51l-2.633,7.948c-.024.049-.488,1.439-.683,2.316-.244-.9-.463-1.609-.707-2.316l-2.633-7.948h-1.146Z" transform="translate(-1.482 38.811)"/>
  </g>
</svg>
