<svg xmlns="http://www.w3.org/2000/svg" width="30.384" height="30.384" viewBox="0 0 30.384 30.384"><path d="M6.255,11.086a1.9,1.9,0,0,0,2.685,0l4.353-4.35v14.4a1.9,1.9,0,1,0,3.8,0V6.736l4.355,4.355a1.9,1.9,0,0,0,2.685-2.685l-7.6-7.6a1.893,1.893,0,0,0-2.684,0l-7.6,7.6A1.893,1.893,0,0,0,6.255,11.086Zm22.23,10.053H18.99a3.8,3.8,0,1,1-7.6,0H1.9a1.9,1.9,0,0,0-1.9,1.9v5.7a1.9,1.9,0,0,0,1.9,1.9H28.485a1.9,1.9,0,0,0,1.9-1.9v-5.7A1.9,1.9,0,0,0,28.485,21.139Zm-2.848,6.172a1.424,1.424,0,1,1,1.424-1.424A1.428,1.428,0,0,1,25.636,27.311Z" transform="translate(0 -0.25)" fill="#fff"/></svg>