<svg id="Group_5569" data-name="Group 5569" xmlns="http://www.w3.org/2000/svg" xmlns:xlink="http://www.w3.org/1999/xlink" width="274.53" height="71.566" viewBox="0 0 274.53 71.566">
  <defs>
    <clipPath id="clip-path">
      <rect id="Rectangle_4" data-name="Rectangle 4" width="274.53" height="71.566" fill="#f2a900"/>
    </clipPath>
  </defs>
  <g id="Group_1" data-name="Group 1" clip-path="url(#clip-path)">
    <path id="Path_1" data-name="Path 1" d="M630.928,71.633a51.99,51.99,0,0,1-6.239-.366l-.511-.071c-2.71-.351-4.7.489-5.922,2.507a8.075,8.075,0,0,0-.9,2.343c.5.342.98.666,1.468.978a7.073,7.073,0,0,1,.841-2.527A3.616,3.616,0,0,1,623,72.664a6.483,6.483,0,0,1,.843.058l.65.089a50.144,50.144,0,0,0,5.66.369c.272-.532.53-1.05.775-1.547m6.6.239a31.724,31.724,0,0,0-3.425-.2q-.352.751-.738,1.538a33.9,33.9,0,0,1,3.961.21c3.645.471,6.93,1.737,7.086,11.913,0,.178,0,.351,0,.524,0,.129-.007.259-.007.392,0,.789,0,1.573-.025,2.332-.266,8.9-2.215,15.757-5.958,20.962-1.148,1.593-2.171,2.355-3.048,2.231-1.559-.2-3.221-2.917-4.994-5.811-.986-1.61-2.006-3.276-3.189-4.844a45.734,45.734,0,0,1-4.167-6.643c-.53-1.025-.972-1.949-1.353-2.83a34.776,34.776,0,0,1-2.968-11.351c-.61-.367-1.163-.713-1.675-1.046,0,4.305,1.482,9.764,4.12,15.094.4.8.851,1.646,1.432,2.662a47.21,47.21,0,0,0,3.305,5.023c1.084,1.427,2.049,3,2.982,4.517l.119.192c2.057,3.366,3.833,6.272,6.188,6.581,1.544.193,3.043-.742,4.582-2.884,4.072-5.66,6.117-13.157,6.253-22.92l.013-.632c.01-.512.021-1.023.014-1.556-.006-.353-.019-.692-.032-1.03l-.005-.123c-.323-8.1-2.7-11.551-8.466-12.3" transform="translate(-376.589 -43.406)" fill="#f2a900" fill-rule="evenodd"/>
    <path id="Path_2" data-name="Path 2" d="M588.912,50.176c.281.641.6,1.308.952,2.023,1.1-2.944,2.332-5.921,3.68-8.865q-.738-.347-1.448-.7c-1.176,2.564-2.247,5.1-3.185,7.538m-9.934,21.74c4.717-1.28,5.979-5.128,8.275-12.131.392-1.2.826-2.516,1.307-3.923-.4-.7-.738-1.32-1.042-1.9-.688,1.952-1.272,3.715-1.813,5.363-2.26,6.9-3.291,10.043-7.167,11.1a2.3,2.3,0,0,1-.477.074h-.081c-4.512,0-7.314-15.338-9.574-27.71-.849-4.656-1.652-9.055-2.529-12.726-2.677-11.215-2.567-18.772.327-22.456a7.169,7.169,0,0,1,5.736-2.646c3.608-.14,8.45,1.3,14.418,4.284.764.383,1.543.785,2.342,1.217,2.307,1.247,4.773,2.7,7.331,4.332,6.329,4.026,6.106,7.516,2.306,15.33-.336.693-.7,1.426-1.1,2.191-.516,1.015-1.065,2.077-1.664,3.228l-.528,1.026c-.586,1.13-1.159,2.276-1.747,3.491q.711.346,1.446.695c.6-1.235,1.172-2.384,1.751-3.5l.531-1.019c.773-1.491,1.492-2.877,2.145-4.187.375-.752.72-1.471,1.046-2.17,3.474-7.472,3.867-11.829-3.291-16.383-2.084-1.324-4.124-2.546-6.065-3.632-.8-.45-1.59-.873-2.365-1.277-6.9-3.6-12.485-5.342-16.623-5.179a8.841,8.841,0,0,0-6.97,3.267c-3.24,4.131-3.439,11.9-.609,23.742.872,3.662,1.67,8.034,2.514,12.66,2.72,14.9,5.29,28.981,11.161,28.98.049,0,.1,0,.147,0a4.009,4.009,0,0,0,.859-.136" transform="translate(-343.201 -2.073)" fill="#f2a900" fill-rule="evenodd"/>
    <path id="Path_3" data-name="Path 3" d="M629.136,43.677l0,.038c.014.343.027.686.033,1.045.007.516,0,1.012-.013,1.507,2.75-2.6,2.914-7.777,3.073-12.812a74.115,74.115,0,0,1,.5-7.576l.131-.95c.813-5.849,1.826-13.129-2.015-17.231-1.884-2.011-4.769-3.029-8.581-3.029q-.433,0-.882.018a44.615,44.615,0,0,0-16.129,4.409q.823.437,1.671.907a42.357,42.357,0,0,1,14.364-3.753l.081,0c3.85-.149,6.553.665,8.268,2.5,3.342,3.569,2.384,10.455,1.615,15.987l-.132.956a75.537,75.537,0,0,0-.516,7.748c-.147,4.6-.341,8.038-1.474,10.248M624.556,48a8.649,8.649,0,0,0,1.69-.236c.014-.529.018-1.07.018-1.614a6.736,6.736,0,0,1-1.769.3c-2.769.121-6.8-1.02-12.018-3.358-.6-.266-1.169-.534-1.74-.8l-.08-.039c-.695-.326-1.368-.651-2.027-.974a79.679,79.679,0,0,1-7.224-4c-.7-.437-1.379-.889-2.086-1.381-5.016-3.492-8.027-6.949-9.207-10.571-.476-1.463.444-3.186,1.3-4.374,2.215-3.078,6.8-6.58,12.339-9.435-.555-.295-1.1-.575-1.637-.845-5.388,2.9-9.879,6.406-12.034,9.4-1.545,2.145-2.055,4.07-1.513,5.725,1.357,4.169,4.9,8.109,10.828,12.045.674.451,1.42.921,2.28,1.437,1.891,1.14,4.012,2.292,6.3,3.421q.981.484,2.017.969c.588.277,1.175.552,1.787.826,5.521,2.479,9.7,3.622,12.773,3.506" transform="translate(-359.095 -2.849)" fill="#f2a900" fill-rule="evenodd"/>
    <path id="Path_4" data-name="Path 4" d="M20.357,15.054V2.476a2.5,2.5,0,0,1,5,0v22.68a12.653,12.653,0,1,1-5-10.1m0,10.1v-.051a7.7,7.7,0,1,0,0,.051" transform="translate(0 -0.001)" fill="#f2a900"/>
    <path id="Path_5" data-name="Path 5" d="M99.682,43.55a2.49,2.49,0,0,1-2.235,2.74L80.128,48.223a7.7,7.7,0,0,0,7.806,4.364A9.912,9.912,0,0,0,93.371,50.3a2.416,2.416,0,0,1,3.442.785,2.63,2.63,0,0,1-.835,3.448,12.365,12.365,0,0,1-7.49,3.022,12.679,12.679,0,1,1-2.813-25.2A12.437,12.437,0,0,1,99.682,43.55m-20.109-.3,14.508-1.62a7.388,7.388,0,0,0-7.851-4.308,7.723,7.723,0,0,0-6.657,5.928" transform="translate(-45.41 -19.7)" fill="#f2a900"/>
    <path id="Path_6" data-name="Path 6" d="M174.427,44.957V55.11a2.5,2.5,0,1,1-5,0V44.957a7.678,7.678,0,1,0-15.355,0V55.11a2.5,2.5,0,1,1-5,0V44.957a12.679,12.679,0,1,1,25.357,0" transform="translate(-90.983 -19.7)" fill="#f2a900"/>
    <path id="Path_7" data-name="Path 7" d="M232.664,15.183a2.533,2.533,0,0,1-2.526,2.526h-3.586V35.539a2.5,2.5,0,1,1-5,0V17.709h-3.637a2.523,2.523,0,0,1-2.475-2.526,2.479,2.479,0,0,1,2.475-2.475h3.637V2.605a2.5,2.5,0,0,1,5,0v10.1h3.586a2.491,2.491,0,0,1,2.526,2.475" transform="translate(-131.49 -0.079)" fill="#f2a900"/>
    <path id="Path_8" data-name="Path 8" d="M361.2,45.317v9.9a2.441,2.441,0,0,1-2.526,2.526,2.661,2.661,0,0,1-2.424-2.526,11.011,11.011,0,0,1-7.476,2.526c-7.122,0-12.78-5.3-12.78-12.426a12.7,12.7,0,0,1,12.78-12.779c7.122,0,12.426,5.658,12.426,12.779m-4.95,0a7.636,7.636,0,0,0-7.476-7.829,7.935,7.935,0,0,0-7.83,7.829,7.637,7.637,0,0,0,7.83,7.476,7.335,7.335,0,0,0,7.476-7.476" transform="translate(-205.068 -19.859)" fill="#f2a900"/>
    <path id="Path_9" data-name="Path 9" d="M445.52,42.843a.454.454,0,0,1,.051.253V55.37a2.533,2.533,0,0,1-2.526,2.526,2.491,2.491,0,0,1-2.475-2.526V42.641a5.152,5.152,0,0,0-10.3,0V55.37a2.491,2.491,0,0,1-2.476,2.526,2.533,2.533,0,0,1-2.525-2.526V42.641a5.127,5.127,0,0,0-10.254,0V55.37a2.5,2.5,0,1,1-5,0V42.641a10.143,10.143,0,0,1,10.153-10.1,9.994,9.994,0,0,1,7.627,3.486,10,10,0,0,1,7.628-3.486,10.143,10.143,0,0,1,10.153,10.1c0,.1,0,.152-.051.2" transform="translate(-250.243 -19.859)" fill="#f2a900"/>
    <path id="Path_10" data-name="Path 10" d="M285.892,43.1a2.49,2.49,0,0,1-2.235,2.74l-17.319,1.934a7.7,7.7,0,0,0,7.806,4.364,9.912,9.912,0,0,0,5.437-2.285,2.416,2.416,0,0,1,3.442.785,2.63,2.63,0,0,1-.835,3.448,12.365,12.365,0,0,1-7.49,3.022,12.679,12.679,0,1,1-2.813-25.2A12.437,12.437,0,0,1,285.892,43.1m-20.109-.3,14.508-1.62a7.388,7.388,0,0,0-7.851-4.308,7.723,7.723,0,0,0-6.657,5.928" transform="translate(-159.061 -19.428)" fill="#f2a900"/>
    <path id="Path_11" data-name="Path 11" d="M297.914,123.628v14.3a9.568,9.568,0,0,1-.685,3.594,8.376,8.376,0,0,1-1.811,2.756,8,8,0,0,1-2.675,1.766,8.589,8.589,0,0,1-3.261.622,8.707,8.707,0,0,1-1.612-.151,8.889,8.889,0,0,1-1.54-.434,8.059,8.059,0,0,1-1.4-.7,6.218,6.218,0,0,1-1.18-.953.654.654,0,0,1-.216-.468.564.564,0,0,1,.2-.433.5.5,0,0,1,.5-.153,1.439,1.439,0,0,1,.423.243,6.705,6.705,0,0,0,2.252,1.414,7.639,7.639,0,0,0,5.458-.092,6.844,6.844,0,0,0,2.288-1.555,7.274,7.274,0,0,0,1.531-2.412,8.453,8.453,0,0,0,.558-3.138V136a8.748,8.748,0,0,1-1.333,1.739,8.353,8.353,0,0,1-1.729,1.342,8.661,8.661,0,0,1-2.054.865,8.5,8.5,0,0,1-2.288.306,8.3,8.3,0,0,1-3.342-.676A8.7,8.7,0,0,1,281.421,135a8.314,8.314,0,0,1-.675-3.342,8.424,8.424,0,0,1,.675-3.369,8.591,8.591,0,0,1,1.847-2.729A8.81,8.81,0,0,1,286,123.727a8.309,8.309,0,0,1,3.342-.676,8.5,8.5,0,0,1,2.288.306,8.678,8.678,0,0,1,2.054.865,8.341,8.341,0,0,1,1.729,1.342,8.733,8.733,0,0,1,1.333,1.738v-3.675a.545.545,0,0,1,.171-.415.569.569,0,0,1,.405-.162.593.593,0,0,1,.423.162.547.547,0,0,1,.171.415m-16,8.034a7.225,7.225,0,0,0,.576,2.864,7.458,7.458,0,0,0,3.927,3.963,7.481,7.481,0,0,0,5.846,0,7.346,7.346,0,0,0,3.909-3.963,7.322,7.322,0,0,0,.567-2.864,7.368,7.368,0,0,0-4.485-6.855,7.542,7.542,0,0,0-5.828,0,7.415,7.415,0,0,0-2.36,1.594,7.5,7.5,0,0,0-1.576,2.36,7.312,7.312,0,0,0-.576,2.9" transform="translate(-171.349 -75.102)" fill="#f2a900"/>
    <path id="Path_12" data-name="Path 12" d="M336.192,127.574a8.494,8.494,0,0,1,1.369-1.838,8.959,8.959,0,0,1,1.8-1.423,9.1,9.1,0,0,1,2.125-.928,8.4,8.4,0,0,1,2.378-.333.075.075,0,0,1,.045.009c.006.006.021.009.045.009a.253.253,0,0,1,.108-.018.551.551,0,0,1,.613.585.558.558,0,0,1-.171.421.611.611,0,0,1-.442.165h-.2a7.239,7.239,0,0,0-2.954.612,7.979,7.979,0,0,0-2.441,1.664,7.871,7.871,0,0,0-1.666,2.465,7.533,7.533,0,0,0-.613,3.032v7.413a.6.6,0,0,1-.171.432.54.54,0,0,1-.4.18.561.561,0,0,1-.424-.18.606.606,0,0,1-.171-.433V123.665a.606.606,0,0,1,.171-.433.541.541,0,0,1,.405-.18.553.553,0,0,1,.432.18.624.624,0,0,1,.163.433Z" transform="translate(-204.475 -75.103)" fill="#f2a900"/>
    <path id="Path_13" data-name="Path 13" d="M360.818,131.662a8.424,8.424,0,0,1,.675-3.369,8.591,8.591,0,0,1,1.847-2.729,8.81,8.81,0,0,1,2.729-1.838,8.625,8.625,0,0,1,6.693,0,8.668,8.668,0,0,1,2.729,1.838,8.562,8.562,0,0,1,2.5,6.1A8.409,8.409,0,0,1,377.32,135a8.681,8.681,0,0,1-1.829,2.729,8.582,8.582,0,0,1-2.729,1.846,8.62,8.62,0,0,1-6.693,0A8.7,8.7,0,0,1,361.493,135a8.314,8.314,0,0,1-.675-3.342m1.171,0a7.225,7.225,0,0,0,.576,2.864,7.458,7.458,0,0,0,3.927,3.963,7.481,7.481,0,0,0,5.846,0,7.535,7.535,0,0,0,2.36-1.6,7.5,7.5,0,0,0,1.558-8.124,7.4,7.4,0,0,0-3.927-3.954,7.542,7.542,0,0,0-5.828,0,7.416,7.416,0,0,0-2.36,1.594,7.5,7.5,0,0,0-1.576,2.36,7.312,7.312,0,0,0-.576,2.9" transform="translate(-220.22 -75.102)" fill="#f2a900"/>
    <path id="Path_14" data-name="Path 14" d="M425.2,135.752a8.1,8.1,0,0,1-1.18,1.729,8.313,8.313,0,0,1-1.531,1.342,7.011,7.011,0,0,1-1.792.874,6.451,6.451,0,0,1-1.982.306,6.7,6.7,0,0,1-2.774-.549,5.587,5.587,0,0,1-2.081-1.6,7.434,7.434,0,0,1-1.315-2.585,12.171,12.171,0,0,1-.459-3.5v-8.125a.612.612,0,0,1,.153-.423.56.56,0,0,1,.441-.171.524.524,0,0,1,.4.171.591.591,0,0,1,.162.423v8.125a8.1,8.1,0,0,0,1.477,5.288,5.05,5.05,0,0,0,4.107,1.775,5.8,5.8,0,0,0,2.477-.541,6.337,6.337,0,0,0,2.026-1.486,7.138,7.138,0,0,0,1.369-2.225,7.445,7.445,0,0,0,.5-2.756v-8.161a.624.624,0,0,1,.162-.433.533.533,0,0,1,.414-.18.542.542,0,0,1,.406.18.607.607,0,0,1,.171.433v15.763a.593.593,0,0,1-.162.424.588.588,0,0,1-.829,0,.593.593,0,0,1-.162-.424Z" transform="translate(-251.512 -75.103)" fill="#f2a900"/>
    <path id="Path_15" data-name="Path 15" d="M459.953,127.3a8.608,8.608,0,0,1,3.081-3.081,8.665,8.665,0,0,1,2.054-.865,8.5,8.5,0,0,1,2.288-.306,8.374,8.374,0,0,1,3.351.676,8.669,8.669,0,0,1,2.729,1.838,8.558,8.558,0,0,1,2.5,6.1,8.415,8.415,0,0,1-.666,3.342,8.675,8.675,0,0,1-1.829,2.729,8.583,8.583,0,0,1-2.729,1.846,8.368,8.368,0,0,1-3.351.676,8.5,8.5,0,0,1-2.288-.306,8.649,8.649,0,0,1-2.054-.865,8.393,8.393,0,0,1-1.739-1.351,8.773,8.773,0,0,1-1.342-1.748v9.548a.548.548,0,0,1-.171.415.594.594,0,0,1-.423.162.57.57,0,0,1-.406-.162.547.547,0,0,1-.171-.415V123.628a.547.547,0,0,1,.171-.415.57.57,0,0,1,.406-.162.594.594,0,0,1,.423.162.548.548,0,0,1,.171.415Zm0,4.36a7.218,7.218,0,0,0,.577,2.864,7.488,7.488,0,0,0,1.576,2.36,7.568,7.568,0,0,0,2.351,1.6,7.481,7.481,0,0,0,5.846,0,7.535,7.535,0,0,0,2.36-1.6,7.5,7.5,0,0,0,1.558-8.124,7.4,7.4,0,0,0-3.927-3.954,7.542,7.542,0,0,0-5.828,0,7.418,7.418,0,0,0-2.36,1.594,7.494,7.494,0,0,0-1.576,2.36,7.306,7.306,0,0,0-.577,2.9" transform="translate(-280.011 -75.102)" fill="#f2a900"/>
  </g>
</svg>
